<svg width="24" height="23" viewBox="0 0 24 23" fill="none" xmlns="http://www.w3.org/2000/svg">
                                        <path d="M16.1568 8.1772C16.0284 7.84626 15.7343 7.81766 14.2887 7.81766H13.0875V7.2947C13.0875 6.48165 12.9716 5.91374 12.6899 5.32949C12.1804 4.2713 11.3272 3.5318 10.2213 3.1886C9.68279 3.02517 8.87923 2.95572 8.39047 3.02926C7.03602 3.24172 5.88039 4.09562 5.29223 5.31315C5.00642 5.90966 4.89045 6.48165 4.89045 7.2947V7.82175H3.68511C2.23954 7.82175 1.94546 7.85035 1.81705 8.19354C1.75078 8.41008 1.12948 13.0637 0.864385 15.0697C0.632431 16.8184 0.417045 18.469 0.259648 19.711C-0.0137267 21.8519 -0.00544266 21.8846 0.00284141 21.9214V21.9255C0.0401198 22.0644 0.408761 22.428 0.520596 22.5342L1.00521 23H16.9438L17.3041 22.6854C17.4657 22.5424 18 22.0562 18 21.8152C18 21.6517 16.1899 8.27117 16.1568 8.1772ZM16.6911 21.5046C16.687 21.5332 16.6538 21.619 16.5958 21.6803L16.513 21.7702H1.46498L1.2496 21.5414L2.09871 15.2863C2.39694 13.0596 2.66203 11.1189 2.81943 9.95855C2.88984 9.45193 2.92298 9.19453 2.93955 9.06788C3.49872 9.06379 5.94252 9.0597 8.98278 9.0597H15.0302L15.0384 9.10465C15.1047 9.4315 16.6621 21.141 16.6911 21.5046ZM6.1372 7.82175V7.35598C6.1372 7.04139 6.17862 6.6083 6.22418 6.40811C6.46856 5.38669 7.30111 4.5573 8.34077 4.29173C8.77568 4.1855 9.48811 4.22228 9.92302 4.37753H9.92717C10.3828 4.5287 10.7556 4.77384 11.0994 5.14972C11.6544 5.74623 11.8408 6.28145 11.8408 7.27018V7.82175H6.1372Z" fill="black"></path>
                                        <circle cx="17" cy="7" r="7" fill="#34A853"></circle>
                                        <path d="M17.0036 10.1087C16.4986 10.1065 16.0672 9.97337 15.7092 9.70916C15.3513 9.44496 15.0775 9.06037 14.8878 8.5554C14.6982 8.05043 14.6034 7.44212 14.6034 6.73047C14.6034 6.02095 14.6982 5.41477 14.8878 4.91193C15.0796 4.40909 15.3544 4.02557 15.7124 3.76136C16.0725 3.49716 16.5029 3.36506 17.0036 3.36506C17.5043 3.36506 17.9336 3.49822 18.2916 3.76456C18.6495 4.02876 18.9233 4.41229 19.113 4.91513C19.3047 5.41584 19.4006 6.02095 19.4006 6.73047C19.4006 7.44425 19.3058 8.05362 19.1162 8.55859C18.9265 9.06143 18.6527 9.44602 18.2948 9.71236C17.9368 9.97656 17.5064 10.1087 17.0036 10.1087ZM17.0036 9.25533C17.4468 9.25533 17.793 9.03906 18.0423 8.60653C18.2937 8.17401 18.4194 7.54865 18.4194 6.73047C18.4194 6.18714 18.3619 5.72798 18.2468 5.35298C18.1339 4.97585 17.9709 4.69034 17.7579 4.49645C17.5469 4.30043 17.2955 4.20241 17.0036 4.20241C16.5625 4.20241 16.2163 4.41974 15.9649 4.8544C15.7135 5.28906 15.5867 5.91442 15.5846 6.73047C15.5846 7.27592 15.641 7.73722 15.754 8.11435C15.869 8.48935 16.032 8.77379 16.2429 8.96768C16.4539 9.15945 16.7074 9.25533 17.0036 9.25533Z" fill="#F9FFFB"></path>
                                    </svg>