<svg width="44" height="45" viewBox="0 0 44 45" fill="none" xmlns="http://www.w3.org/2000/svg">
                                                    <circle cx="21.9995" cy="22.9961" r="21.5" stroke="#424242">
                                                    </circle>
                                                    <g clip-path="url(#clip0_2343_13859)">
                                                        <path d="M22.0218 13.9961C26.4153 14.0049 29.7134 17.7202 28.8665 21.6964C28.4484 23.66 27.5123 25.4261 26.3138 27.0614C25.1774 28.6116 23.9185 30.0879 22.6867 31.5779C22.2178 32.1454 21.804 32.1262 21.3001 31.5795C19.1664 29.2642 17.2295 26.8278 15.9102 24.0253C15.3696 22.8757 14.9978 21.6836 14.9995 20.4176C15.003 16.8701 18.1568 13.9881 22.0218 13.9961ZM22.0297 30.36C22.9045 29.2763 23.7479 28.3049 24.5037 27.2782C25.8116 25.5008 26.9568 23.6407 27.4616 21.5142C28.0739 18.934 26.466 16.3499 23.7566 15.5367C21.0149 14.713 18.0326 15.9324 16.8743 18.344C16.1858 19.777 16.3188 21.2091 16.8647 22.6413C17.6756 24.7695 18.9512 26.6632 20.399 28.4655C20.8889 29.0764 21.4226 29.6576 22.0297 30.36Z" fill="white"></path>
                                                        <path d="M24.7977 20.4357C24.7916 21.8486 23.5204 22.9982 21.9728 22.9886C20.4567 22.9797 19.2005 21.8197 19.1987 20.4253C19.1961 19.0148 20.4664 17.85 22.0043 17.8516C23.5432 17.8532 24.8029 19.0188 24.7977 20.4357ZM23.3953 20.4213C23.3953 19.7156 22.7873 19.1481 22.021 19.1384C21.2371 19.128 20.6011 19.702 20.6011 20.4213C20.6011 21.1253 21.2109 21.6937 21.9772 21.7033C22.7663 21.7121 23.3953 21.143 23.3953 20.4213Z" fill="white"></path>
                                                    </g>
                                                    <defs>
                                                        <clipPath id="clip0_2343_13859">
                                                            <rect width="14" height="18" fill="white" transform="translate(14.9995 13.9961)"></rect>
                                                        </clipPath>
                                                    </defs>
                                                </svg>