<svg width="16" height="16" viewBox="0 0 16 16" fill="none" xmlns="http://www.w3.org/2000/svg">
                                        <path d="M12.101 4.89551C12.6532 4.89551 13.101 4.44779 13.101 3.89551C13.101 3.34322 12.6532 2.89551 12.101 2.89551C11.5487 2.89551 11.101 3.34322 11.101 3.89551C11.101 4.44779 11.5487 4.89551 12.101 4.89551Z" fill="#ABABAB"></path>
                                        <path d="M7.99939 11.9971C5.79939 11.9971 3.99939 10.1971 3.99939 7.99707C3.99939 5.79707 5.79939 3.99707 7.99939 3.99707C10.1994 3.99707 11.9994 5.79707 11.9994 7.99707C11.9994 10.1971 10.1994 11.9971 7.99939 11.9971ZM7.99939 5.99707C6.89939 5.99707 5.99939 6.89707 5.99939 7.99707C5.99939 9.09707 6.89939 9.99707 7.99939 9.99707C9.09939 9.99707 9.99939 9.09707 9.99939 7.99707C9.99939 6.89707 9.09939 5.99707 7.99939 5.99707Z" fill="#ABABAB"></path>
                                        <path d="M11.9994 15.9971H3.99939C1.89939 15.9971 -0.000610352 14.0971 -0.000610352 11.9971V3.99707C-0.000610352 1.89707 1.89939 -0.00292969 3.99939 -0.00292969H11.9994C14.0994 -0.00292969 15.9994 1.89707 15.9994 3.99707V11.9971C15.9994 14.0971 14.0994 15.9971 11.9994 15.9971ZM3.99939 1.99707C3.09939 1.99707 1.99939 3.09707 1.99939 3.99707V11.9971C1.99939 12.9971 2.99939 13.9971 3.99939 13.9971H11.9994C12.8994 13.9971 13.9994 12.8971 13.9994 11.9971V3.99707C13.9994 3.09707 12.8994 1.99707 11.9994 1.99707H3.99939Z" fill="#ABABAB"></path>
                                    </svg>