<svg width="62" height="62" viewBox="0 0 62 62" fill="none" xmlns="http://www.w3.org/2000/svg">
                                                            <rect width="62" height="62" rx="4"></rect>
                                                            <path d="M45.4473 20.0309C45.482 20.3788 45.5 20.7314 45.5 21.0883C45.5 26.919 40.7564 31.6625 34.9258 31.6625C29.0951 31.6625 24.3516 26.919 24.3516 21.0883C24.3516 20.7314 24.3695 20.3788 24.4042 20.0309H21.9805L21.0554 12.6289H13.7773V14.7438H19.1884L21.5676 33.7774H47.1868L48.8039 20.0309H45.4473Z"></path>
                                                            <path d="M22.0967 38.0074H19.0648C17.3157 38.0074 15.8926 39.4305 15.8926 41.1797C15.8926 42.9289 17.3157 44.352 19.0648 44.352H19.2467C19.1293 44.6829 19.0648 45.0386 19.0648 45.4094C19.0648 47.1586 20.4879 48.5816 22.2371 48.5816C24.4247 48.5816 25.9571 46.4091 25.2274 44.352H35.1081C34.377 46.413 35.9157 48.5816 38.0985 48.5816C39.8476 48.5816 41.2707 47.1586 41.2707 45.4094C41.2707 45.0386 41.2061 44.6829 41.0888 44.352H43.3856V42.2371H19.0648C18.4818 42.2371 18.0074 41.7628 18.0074 41.1797C18.0074 40.5966 18.4818 40.1223 19.0648 40.1223H46.4407L46.9384 35.8926H21.8323L22.0967 38.0074Z"></path>
                                                            <path d="M34.9262 29.5477C39.5907 29.5477 43.3856 25.7528 43.3856 21.0883C43.3856 16.4238 39.5907 12.6289 34.9262 12.6289C30.2616 12.6289 26.4668 16.4238 26.4668 21.0883C26.4668 25.7528 30.2617 29.5477 34.9262 29.5477ZM33.8688 17.916H35.9836V20.6503L37.7886 22.4554L36.2932 23.9508L33.8687 21.5262V17.916H33.8688Z"></path>
                                                        </svg>