<svg width="16" height="16" viewBox="0 0 16 16" fill="none" xmlns="http://www.w3.org/2000/svg">
                                                <path d="M8 0C3.6 0 0 3.6 0 8C0 11.4 2.1 14.3 5.1 15.4C5 14.8 5 13.8 5.1 13.1C5.2 12.5 6 9.1 6 9.1C6 9.1 5.8 8.7 5.8 8C5.8 6.9 6.5 6 7.3 6C8 6 8.3 6.5 8.3 7.1C8.3 7.8 7.9 8.8 7.6 9.8C7.4 10.6 8 11.2 8.8 11.2C10.2 11.2 11.3 9.7 11.3 7.5C11.3 5.6 9.9 4.2 8 4.2C5.7 4.2 4.4 5.9 4.4 7.7C4.4 8.4 4.7 9.1 5 9.5C5 9.7 5 9.8 5 9.9C4.9 10.2 4.8 10.7 4.8 10.8C4.8 10.9 4.7 11 4.5 10.9C3.5 10.4 2.9 9 2.9 7.8C2.9 5.3 4.7 3 8.2 3C11 3 13.1 5 13.1 7.6C13.1 10.4 11.4 12.6 8.9 12.6C8.1 12.6 7.3 12.2 7.1 11.7C7.1 11.7 6.7 13.2 6.6 13.6C6.4 14.3 5.9 15.2 5.6 15.7C6.4 15.9 7.2 16 8 16C12.4 16 16 12.4 16 8C16 3.6 12.4 0 8 0Z" fill="#E12828"></path>
                                            </svg>