<svg width="15" height="16" viewBox="0 0 15 16" fill="none" xmlns="http://www.w3.org/2000/svg">
                                            <path d="M0 0C0.30478 0 0.585152 0 0.897442 0C0.908707 0.197137 0.919972 0.389267 0.932488 0.607056C1.30235 0.482516 1.64781 0.347336 2.00391 0.250332C3.83134 -0.247829 5.5555 0.0450599 7.19017 0.959399C7.97121 1.39686 8.7898 1.71165 9.68599 1.81178C10.9308 1.95072 12.0873 1.6716 13.1813 1.08832C13.4566 0.941876 13.7257 0.783541 14.0443 0.604553C14.0505 0.745991 14.0599 0.853634 14.0599 0.960651C14.0605 3.92396 14.058 6.88665 14.0662 9.84996C14.0668 10.079 13.9961 10.2042 13.7964 10.3143C11.4702 11.5973 9.14277 11.6123 6.82531 10.3106C4.99976 9.28546 3.14292 9.1484 1.22162 10.0164C0.990065 10.1209 0.908081 10.2524 0.909958 10.5096C0.921849 12.21 0.916217 13.911 0.916217 15.6114C0.916217 15.7353 0.916217 15.8586 0.916217 16C0.600172 16 0.312916 16 0 16C0 10.6779 0 5.35336 0 0Z" fill="#EB5757"></path>
                                        </svg>